<?xml version="1.0" encoding="UTF-8" standalone="no"?>
<!-- Generator: Adobe Illustrator 15.0.2, SVG Export Plug-In . SVG Version: 6.00 Build 0)  -->

<svg
   xmlns:dc="http://purl.org/dc/elements/1.1/"
   xmlns:cc="http://creativecommons.org/ns#"
   xmlns:rdf="http://www.w3.org/1999/02/22-rdf-syntax-ns#"
   xmlns:svg="http://www.w3.org/2000/svg"
   xmlns="http://www.w3.org/2000/svg"
   xmlns:xlink="http://www.w3.org/1999/xlink"
   xmlns:sodipodi="http://sodipodi.sourceforge.net/DTD/sodipodi-0.dtd"
   xmlns:inkscape="http://www.inkscape.org/namespaces/inkscape"
   version="1.1"
   id="Capa_1"
   x="0px"
   y="0px"
   width="738.38159"
   height="738.38159"
   viewBox="0 0 738.38156 738.3816"
   enable-background="new 0 0 628.254 613.516"
   xml:space="preserve"
   inkscape:version="0.91 r13725"
   sodipodi:docname="food.svg"><metadata
     id="metadata4151"><rdf:RDF><cc:Work
         rdf:about=""><dc:format>image/svg+xml</dc:format><dc:type
           rdf:resource="http://purl.org/dc/dcmitype/StillImage" /><dc:title></dc:title></cc:Work></rdf:RDF></metadata><defs
     id="defs4149"><linearGradient
       id="linearGradient3236"><stop
         offset="0"
         style="stop-color:#ffffff;stop-opacity:0.35416663"
         id="stop3238" /><stop
         offset="1"
         style="stop-color:#ffffff;stop-opacity:0"
         id="stop3240" /></linearGradient><linearGradient
       id="linearGradient3222"><stop
         offset="0"
         style="stop-color:#58f248;stop-opacity:1"
         id="stop3224" /><stop
         offset="1"
         style="stop-color:#40b235;stop-opacity:1"
         id="stop3226" /></linearGradient><linearGradient
       id="linearGradient3208"><stop
         offset="0"
         style="stop-color:#ff6d00;stop-opacity:1"
         id="stop3210" /><stop
         offset="1"
         style="stop-color:#d40000;stop-opacity:1"
         id="stop3212" /></linearGradient><linearGradient
       id="linearGradient3160"><stop
         offset="0"
         style="stop-color:#dadada;stop-opacity:1"
         id="stop3162" /><stop
         offset="1"
         style="stop-color:#ffffff;stop-opacity:1"
         id="stop3164" /></linearGradient><linearGradient
       id="linearGradient3148"><stop
         offset="0"
         style="stop-color:#4a0b02;stop-opacity:1"
         id="stop3150" /><stop
         offset="1"
         style="stop-color:#901604;stop-opacity:1"
         id="stop3152" /></linearGradient><linearGradient
       id="linearGradient3136"><stop
         offset="0"
         style="stop-color:#0ff248;stop-opacity:1"
         id="stop3138" /><stop
         offset="1"
         style="stop-color:#aef248;stop-opacity:1"
         id="stop3140" /></linearGradient><linearGradient
       gradientUnits="userSpaceOnUse"
       xlink:href="#linearGradient3136"
       id="linearGradient3483"
       y2="104.88889"
       x2="100.75926"
       y1="19.555557"
       x1="21.907408" /><linearGradient
       gradientUnits="userSpaceOnUse"
       xlink:href="#linearGradient3148"
       id="linearGradient3487"
       y2="61.629631"
       x2="52.740742"
       y1="85.333336"
       x1="8.2962961" /><linearGradient
       gradientUnits="userSpaceOnUse"
       xlink:href="#linearGradient3148"
       id="linearGradient3489"
       y2="68"
       x2="39.703705"
       y1="76"
       x1="34.814816" /><radialGradient
       gradientTransform="matrix(0.7578421,-0.030497,0.03150583,0.7829113,9.8508017,10.54763)"
       gradientUnits="userSpaceOnUse"
       xlink:href="#linearGradient3208"
       id="radialGradient2226"
       fy="38.459557"
       fx="45.68301"
       r="19.949936"
       cy="38.459557"
       cx="45.68301" /><linearGradient
       gradientUnits="userSpaceOnUse"
       xlink:href="#linearGradient3222"
       id="linearGradient2228"
       y2="32.594528"
       x2="70.186897"
       y1="26.309134"
       x1="62.853935" /><linearGradient
       gradientUnits="userSpaceOnUse"
       xlink:href="#linearGradient3236"
       id="linearGradient2230"
       y2="44.536774"
       x2="50.91169"
       y1="32.804039"
       x1="38.759926" /><linearGradient
       gradientUnits="userSpaceOnUse"
       xlink:href="#linearGradient3160"
       id="linearGradient2234"
       y2="73.111115"
       x2="68.296295"
       y1="82.740738"
       x1="72.444443" /></defs><sodipodi:namedview
     pagecolor="#ffffff"
     bordercolor="#666666"
     borderopacity="1"
     objecttolerance="10"
     gridtolerance="10"
     guidetolerance="10"
     inkscape:pageopacity="0"
     inkscape:pageshadow="2"
     inkscape:window-width="1280"
     inkscape:window-height="657"
     id="namedview4147"
     showgrid="false"
     fit-margin-top="0"
     fit-margin-left="0"
     fit-margin-right="0"
     fit-margin-bottom="0"
     inkscape:zoom="0.19775351"
     inkscape:cx="-1082.7635"
     inkscape:cy="611.0557"
     inkscape:window-x="-8"
     inkscape:window-y="-8"
     inkscape:window-maximized="1"
     inkscape:current-layer="Capa_1" /><circle
     style="fill:#31692c;fill-opacity:1;stroke:none"
     id="path4153"
     cx="369.1908"
     cy="369.1908"
     r="369.1908" /><g
     id="g4137"
     transform="translate(53.120972,71.744629)"><g
       id="g4139"><g
         id="g4141"><g
           id="g4143" /></g></g></g><g
     id="layer3"
     inkscape:label="Layer 2"
     style="display:none"
     transform="translate(-4085.276,-3326.7364)"><g
       id="g4259"
       transform="translate(3571.2517,4017.4266)"
       style="display:inline;stroke:#ffffff;stroke-width:20;stroke-miterlimit:4;stroke-dasharray:none;stroke-opacity:1"><g
         id="g4226"
         style="stroke:#ffffff;stroke-width:20;stroke-miterlimit:4;stroke-dasharray:none;stroke-opacity:1"><path
           style="fill:none;fill-rule:evenodd;stroke:#ffffff;stroke-width:20;stroke-linecap:butt;stroke-linejoin:miter;stroke-miterlimit:4;stroke-dasharray:none;stroke-opacity:1"
           d="M -284.28571,-6.2092244 C -364.45429,-16.068072 -433.67012,106.73379 -441.25526,185.21935 c -7.58514,78.48555 31.16663,190.30766 106.96954,198.57143 75.80291,8.26378 141.05223,-99.09321 151.42858,-175.71429 C -172.2519,129.76523 -204.11713,3.6496231 -284.28571,-6.2092244 Z"
           id="path4204"
           inkscape:connector-curvature="0"
           sodipodi:nodetypes="zzzaz" /><path
           style="fill:none;fill-rule:evenodd;stroke:#ffffff;stroke-width:20;stroke-linecap:butt;stroke-linejoin:miter;stroke-miterlimit:4;stroke-dasharray:none;stroke-opacity:1"
           d="m -180.81731,47.260422 c 0.66651,-4.665567 -23.93774,178.063538 1.01016,261.629508 6.893,23.08893 19.98197,53.82165 39.39595,60.60915 19.41398,6.7875 48.487318,-16.16244 48.487318,-16.16244"
           id="path4206"
           inkscape:connector-curvature="0"
           sodipodi:nodetypes="cazc" /></g><path
         sodipodi:nodetypes="cssssc"
         inkscape:connector-curvature="0"
         id="path4224"
         d="m 32.781748,19.834885 c -8.2851,-33.84657 -132.878408,-32.07906 -132.071072,67.85714 0.40571,50.220225 114.382612,102.699545 116.356782,95.714285 4.1852,-14.8086 -123.065768,20.53599 -129.999998,90 -9.07031,90.86228 85.481806,126.08417 129.285718,111.5301 37.70297,-12.527 74.077352,-57.90326 88.197612,-70.65121"
         style="fill:none;fill-rule:evenodd;stroke:#ffffff;stroke-width:20;stroke-linecap:butt;stroke-linejoin:miter;stroke-miterlimit:4;stroke-dasharray:none;stroke-opacity:1" /><g
         transform="translate(520.24088,0)"
         id="g4251"
         style="stroke:#ffffff;stroke-width:20;stroke-miterlimit:4;stroke-dasharray:none;stroke-opacity:1"><path
           sodipodi:nodetypes="zzzaz"
           inkscape:connector-curvature="0"
           id="path4253"
           d="M -284.28571,-6.2092244 C -364.45429,-16.068072 -433.67012,106.73379 -441.25526,185.21935 c -7.58514,78.48555 31.16663,190.30766 106.96954,198.57143 75.80291,8.26378 141.05223,-99.09321 151.42858,-175.71429 C -172.2519,129.76523 -204.11713,3.6496231 -284.28571,-6.2092244 Z"
           style="fill:none;fill-rule:evenodd;stroke:#ffffff;stroke-width:20;stroke-linecap:butt;stroke-linejoin:miter;stroke-miterlimit:4;stroke-dasharray:none;stroke-opacity:1" /><path
           sodipodi:nodetypes="cazc"
           inkscape:connector-curvature="0"
           id="path4255"
           d="m -180.81731,47.260422 c 0.66651,-4.665567 -23.93774,178.063538 1.01016,261.629508 6.893,23.08893 19.98197,53.82165 39.39595,60.60915 19.41398,6.7875 48.487318,-16.16244 48.487318,-16.16244"
           style="fill:none;fill-rule:evenodd;stroke:#ffffff;stroke-width:20;stroke-linecap:butt;stroke-linejoin:miter;stroke-miterlimit:4;stroke-dasharray:none;stroke-opacity:1" /></g></g></g><g
     id="g4520"
     transform="matrix(1.1554057,0,0,1.1554057,-92.409317,-78.88985)"><path
       inkscape:connector-curvature="0"
       d="m 388.88307,311.02877 26.19049,0 c 0,0 -14.10258,-118.86457 -32.23445,-118.86457 -18.13188,0 -24.17584,16.11724 -24.17584,16.11724 0,0 46.33704,70.51287 30.2198,102.74733 z"
       id="path3218"
       style="fill:#ffffff;fill-rule:evenodd;stroke:none;stroke-width:1px;stroke-linecap:butt;stroke-linejoin:miter;stroke-opacity:1" /><path
       inkscape:connector-curvature="0"
       d="m 399.85027,309.4677 c 0,0 -60.43962,-88.64474 -114.83526,-52.38096 -139.01109,92.67404 -74.02663,315.36876 20.14653,322.34455 54.39565,4.02929 42.21656,-13.10037 78.57149,-10.07328 36.17404,3.012 24.17583,12.08791 74.54219,14.10257 106.83525,-0.42599 191.89943,-267.7448 32.23446,-304.21267 -52.381,-14.10258 -86.63012,32.23445 -90.65941,30.21979 z"
       id="path3206"
       style="fill:#ffffff;fill-opacity:1;fill-rule:evenodd;stroke:none;stroke-width:1px;stroke-linecap:butt;stroke-linejoin:miter;stroke-opacity:1" /><path
       inkscape:connector-curvature="0"
       d="m 403.87956,295.36515 c 0,0 0,-54.39565 54.39566,-80.58615 54.39563,-26.1905 106.77662,14.10258 130.95245,10.07328 24.17587,-4.02932 -44.32237,82.60079 -116.8499,86.63008 -72.5275,4.0293 -68.49821,-14.10258 -68.49821,-16.11721 z"
       id="path3220"
       style="fill:#ffffff;fill-opacity:1;fill-rule:evenodd;stroke:none;stroke-width:1px;stroke-linecap:butt;stroke-linejoin:miter;stroke-opacity:1" /></g></svg>