<?xml version="1.0" encoding="UTF-8" standalone="no"?>
<!-- Generator: Adobe Illustrator 15.0.2, SVG Export Plug-In . SVG Version: 6.00 Build 0)  -->

<svg
   xmlns:dc="http://purl.org/dc/elements/1.1/"
   xmlns:cc="http://creativecommons.org/ns#"
   xmlns:rdf="http://www.w3.org/1999/02/22-rdf-syntax-ns#"
   xmlns:svg="http://www.w3.org/2000/svg"
   xmlns="http://www.w3.org/2000/svg"
   xmlns:sodipodi="http://sodipodi.sourceforge.net/DTD/sodipodi-0.dtd"
   xmlns:inkscape="http://www.inkscape.org/namespaces/inkscape"
   version="1.1"
   id="Capa_1"
   x="0px"
   y="0px"
   width="738.38159"
   height="738.38159"
   viewBox="0 0 738.38156 738.3816"
   enable-background="new 0 0 628.254 613.516"
   xml:space="preserve"
   inkscape:version="0.91 r13725"
   sodipodi:docname="water.svg"><metadata
     id="metadata4151"><rdf:RDF><cc:Work
         rdf:about=""><dc:format>image/svg+xml</dc:format><dc:type
           rdf:resource="http://purl.org/dc/dcmitype/StillImage" /><dc:title></dc:title></cc:Work></rdf:RDF></metadata><defs
     id="defs4149" /><sodipodi:namedview
     pagecolor="#ffffff"
     bordercolor="#666666"
     borderopacity="1"
     objecttolerance="10"
     gridtolerance="10"
     guidetolerance="10"
     inkscape:pageopacity="0"
     inkscape:pageshadow="2"
     inkscape:window-width="1280"
     inkscape:window-height="657"
     id="namedview4147"
     showgrid="false"
     fit-margin-top="0"
     fit-margin-left="0"
     fit-margin-right="0"
     fit-margin-bottom="0"
     inkscape:zoom="0.27966569"
     inkscape:cx="476.28512"
     inkscape:cy="14.710406"
     inkscape:window-x="-8"
     inkscape:window-y="-8"
     inkscape:window-maximized="1"
     inkscape:current-layer="Capa_1" /><circle
     style="fill:#31692c;fill-opacity:1;stroke:none"
     id="path4153"
     cx="369.1908"
     cy="369.1908"
     r="369.1908" /><g
     id="g4137"
     transform="translate(53.120972,71.744629)"><g
       id="g4139"><g
         id="g4141"><g
           id="g4143" /></g></g></g><path
     inkscape:connector-curvature="0"
     id="path4257"
     d="m 369.1906,138.79527 0,0.001 c -75.47885,137.96576 -268.15373,259.87616 -116.65998,416.2934 30.94024,30.94018 72.90394,48.32243 116.65998,48.32257 2e-4,0 0,0 0,0 43.75609,-1.4e-4 85.71979,-17.38239 116.66006,-48.32257 151.49427,-156.41724 -41.1806,-278.32764 -116.65951,-416.29305 -7e-5,-1.3e-4 7e-5,-2.5e-4 0,-5.2e-4 -1.4e-4,-2e-4 0,-2.6e-4 0,-5.1e-4 z"
     style="color:#000000;clip-rule:nonzero;display:inline;overflow:visible;visibility:visible;opacity:1;isolation:auto;mix-blend-mode:normal;color-interpolation:sRGB;color-interpolation-filters:linearRGB;solid-color:#000000;solid-opacity:1;fill:#ffffff;fill-opacity:1;fill-rule:evenodd;stroke:#ffffff;stroke-width:10.357687;stroke-miterlimit:4;stroke-dasharray:none;stroke-opacity:1;color-rendering:auto;image-rendering:auto;shape-rendering:auto;text-rendering:auto;enable-background:accumulate" /><g
     id="layer3"
     inkscape:label="Layer 2"
     style="display:none"
     transform="translate(-4085.276,-3326.7364)"><g
       id="g4259"
       transform="translate(3571.2517,4017.4266)"
       style="display:inline;stroke:#ffffff;stroke-width:20;stroke-miterlimit:4;stroke-dasharray:none;stroke-opacity:1"><g
         id="g4226"
         style="stroke:#ffffff;stroke-width:20;stroke-miterlimit:4;stroke-dasharray:none;stroke-opacity:1"><path
           style="fill:none;fill-rule:evenodd;stroke:#ffffff;stroke-width:20;stroke-linecap:butt;stroke-linejoin:miter;stroke-miterlimit:4;stroke-dasharray:none;stroke-opacity:1"
           d="M -284.28571,-6.2092244 C -364.45429,-16.068072 -433.67012,106.73379 -441.25526,185.21935 c -7.58514,78.48555 31.16663,190.30766 106.96954,198.57143 75.80291,8.26378 141.05223,-99.09321 151.42858,-175.71429 C -172.2519,129.76523 -204.11713,3.6496231 -284.28571,-6.2092244 Z"
           id="path4204"
           inkscape:connector-curvature="0"
           sodipodi:nodetypes="zzzaz" /><path
           style="fill:none;fill-rule:evenodd;stroke:#ffffff;stroke-width:20;stroke-linecap:butt;stroke-linejoin:miter;stroke-miterlimit:4;stroke-dasharray:none;stroke-opacity:1"
           d="m -180.81731,47.260422 c 0.66651,-4.665567 -23.93774,178.063538 1.01016,261.629508 6.893,23.08893 19.98197,53.82165 39.39595,60.60915 19.41398,6.7875 48.487318,-16.16244 48.487318,-16.16244"
           id="path4206"
           inkscape:connector-curvature="0"
           sodipodi:nodetypes="cazc" /></g><path
         sodipodi:nodetypes="cssssc"
         inkscape:connector-curvature="0"
         id="path4224"
         d="m 32.781748,19.834885 c -8.2851,-33.84657 -132.878408,-32.07906 -132.071072,67.85714 0.40571,50.220225 114.382612,102.699545 116.356782,95.714285 4.1852,-14.8086 -123.065768,20.53599 -129.999998,90 -9.07031,90.86228 85.481806,126.08417 129.285718,111.5301 37.70297,-12.527 74.077352,-57.90326 88.197612,-70.65121"
         style="fill:none;fill-rule:evenodd;stroke:#ffffff;stroke-width:20;stroke-linecap:butt;stroke-linejoin:miter;stroke-miterlimit:4;stroke-dasharray:none;stroke-opacity:1" /><g
         transform="translate(520.24088,0)"
         id="g4251"
         style="stroke:#ffffff;stroke-width:20;stroke-miterlimit:4;stroke-dasharray:none;stroke-opacity:1"><path
           sodipodi:nodetypes="zzzaz"
           inkscape:connector-curvature="0"
           id="path4253"
           d="M -284.28571,-6.2092244 C -364.45429,-16.068072 -433.67012,106.73379 -441.25526,185.21935 c -7.58514,78.48555 31.16663,190.30766 106.96954,198.57143 75.80291,8.26378 141.05223,-99.09321 151.42858,-175.71429 C -172.2519,129.76523 -204.11713,3.6496231 -284.28571,-6.2092244 Z"
           style="fill:none;fill-rule:evenodd;stroke:#ffffff;stroke-width:20;stroke-linecap:butt;stroke-linejoin:miter;stroke-miterlimit:4;stroke-dasharray:none;stroke-opacity:1" /><path
           sodipodi:nodetypes="cazc"
           inkscape:connector-curvature="0"
           id="path4255"
           d="m -180.81731,47.260422 c 0.66651,-4.665567 -23.93774,178.063538 1.01016,261.629508 6.893,23.08893 19.98197,53.82165 39.39595,60.60915 19.41398,6.7875 48.487318,-16.16244 48.487318,-16.16244"
           style="fill:none;fill-rule:evenodd;stroke:#ffffff;stroke-width:20;stroke-linecap:butt;stroke-linejoin:miter;stroke-miterlimit:4;stroke-dasharray:none;stroke-opacity:1" /></g></g></g></svg>